TITLE ""
FILE "2Q_t_0618-0634.mp3" MP3
  TRACK 01 AUDIO
    TITLE "2Q_t_0618-0634_01"
    INDEX 01 00:00:00
  TRACK 02 AUDIO
    TITLE "2Q_t_0618-0634_02"
    INDEX 01 00:00:20
  TRACK 03 AUDIO
    TITLE "2Q_t_0618-0634_03"
    INDEX 01 00:01:55
  TRACK 04 AUDIO
    TITLE "2Q_t_0618-0634_04"
    INDEX 01 00:02:27
  TRACK 05 AUDIO
    TITLE "2Q_t_0618-0634_05"
    INDEX 01 00:04:49
  TRACK 06 AUDIO
    TITLE "2Q_t_0618-0634_06"
    INDEX 01 00:05:19
  TRACK 07 AUDIO
    TITLE "2Q_t_0618-0634_07"
    INDEX 01 00:06:42
  TRACK 08 AUDIO
    TITLE "2Q_t_0618-0634_08"
    INDEX 01 00:07:12
  TRACK 09 AUDIO
    TITLE "2Q_t_0618-0634_09"
    INDEX 01 00:10:28
  TRACK 10 AUDIO
    TITLE "2Q_t_0618-0634_10"
    INDEX 01 00:10:73
  TRACK 11 AUDIO
    TITLE "2Q_t_0618-0634_11"
    INDEX 01 00:12:15
  TRACK 12 AUDIO
    TITLE "2Q_t_0618-0634_12"
    INDEX 01 00:12:61
  TRACK 13 AUDIO
    TITLE "2Q_t_0618-0634_13"
    INDEX 01 00:14:10
  TRACK 14 AUDIO
    TITLE "2Q_t_0618-0634_14"
    INDEX 01 00:14:54
  TRACK 15 AUDIO
    TITLE "2Q_t_0618-0634_15"
    INDEX 01 00:15:53
  TRACK 16 AUDIO
    TITLE "2Q_t_0618-0634_16"
    INDEX 01 00:16:25
  TRACK 17 AUDIO
    TITLE "2Q_t_0618-0634_17"
    INDEX 01 00:17:50
  TRACK 18 AUDIO
    TITLE "2Q_t_0618-0634_18"
    INDEX 01 00:18:20
  TRACK 19 AUDIO
    TITLE "2Q_t_0618-0634_19"
    INDEX 01 00:19:33
  TRACK 20 AUDIO
    TITLE "2Q_t_0618-0634_20"
    INDEX 01 00:20:03
  TRACK 21 AUDIO
    TITLE "2Q_t_0618-0634_21"
    INDEX 01 00:21:36
  TRACK 22 AUDIO
    TITLE "2Q_t_0618-0634_22"
    INDEX 01 00:22:06
  TRACK 23 AUDIO
    TITLE "2Q_t_0618-0634_23"
    INDEX 01 00:23:27
  TRACK 24 AUDIO
    TITLE "2Q_t_0618-0634_24"
    INDEX 01 00:23:72
  TRACK 25 AUDIO
    TITLE "2Q_t_0618-0634_25"
    INDEX 01 00:26:41
  TRACK 26 AUDIO
    TITLE "2Q_t_0618-0634_26"
    INDEX 01 00:27:11
  TRACK 27 AUDIO
    TITLE "2Q_t_0618-0634_27"
    INDEX 01 00:28:26
  TRACK 28 AUDIO
    TITLE "2Q_t_0618-0634_28"
    INDEX 01 00:29:08
  TRACK 29 AUDIO
    TITLE "2Q_t_0618-0634_29"
    INDEX 01 00:31:66
  TRACK 30 AUDIO
    TITLE "2Q_t_0618-0634_30"
    INDEX 01 00:32:38
  TRACK 31 AUDIO
    TITLE "2Q_t_0618-0634_31"
    INDEX 01 00:33:43
  TRACK 32 AUDIO
    TITLE "2Q_t_0618-0634_32"
    INDEX 01 00:34:17
  TRACK 33 AUDIO
    TITLE "2Q_t_0618-0634_33"
    INDEX 01 00:35:71
  TRACK 34 AUDIO
    TITLE "2Q_t_0618-0634_34"
    INDEX 01 00:36:41
  TRACK 35 AUDIO
    TITLE "2Q_t_0618-0634_35"
    INDEX 01 00:37:41
  TRACK 36 AUDIO
    TITLE "2Q_t_0618-0634_36"
    INDEX 01 00:38:13
  TRACK 37 AUDIO
    TITLE "2Q_t_0618-0634_37"
    INDEX 01 00:40:14
  TRACK 38 AUDIO
    TITLE "2Q_t_0618-0634_38"
    INDEX 01 00:40:59
  TRACK 39 AUDIO
    TITLE "2Q_t_0618-0634_39"
    INDEX 01 00:42:01
  TRACK 40 AUDIO
    TITLE "2Q_t_0618-0634_40"
    INDEX 01 00:42:56
  TRACK 41 AUDIO
    TITLE "2Q_t_0618-0634_41"
    INDEX 01 00:44:13
  TRACK 42 AUDIO
    TITLE "2Q_t_0618-0634_42"
    INDEX 01 00:44:60
  TRACK 43 AUDIO
    TITLE "2Q_t_0618-0634_43"
    INDEX 01 00:45:72
  TRACK 44 AUDIO
    TITLE "2Q_t_0618-0634_44"
    INDEX 01 00:46:48
  TRACK 45 AUDIO
    TITLE "2Q_t_0618-0634_45"
    INDEX 01 00:48:09
  TRACK 46 AUDIO
    TITLE "2Q_t_0618-0634_46"
    INDEX 01 00:48:54
  TRACK 47 AUDIO
    TITLE "2Q_t_0618-0634_47"
    INDEX 01 00:49:64
  TRACK 48 AUDIO
    TITLE "2Q_t_0618-0634_48"
    INDEX 01 00:50:36
  TRACK 49 AUDIO
    TITLE "2Q_t_0618-0634_49"
    INDEX 01 00:53:09
  TRACK 50 AUDIO
    TITLE "2Q_t_0618-0634_50"
    INDEX 01 00:53:57
  TRACK 51 AUDIO
    TITLE "2Q_t_0618-0634_51"
    INDEX 01 00:54:55
  TRACK 52 AUDIO
    TITLE "2Q_t_0618-0634_52"
    INDEX 01 00:55:35
  TRACK 53 AUDIO
    TITLE "2Q_t_0618-0634_53"
    INDEX 01 00:57:00
  TRACK 54 AUDIO
    TITLE "2Q_t_0618-0634_54"
    INDEX 01 00:57:46
  TRACK 55 AUDIO
    TITLE "2Q_t_0618-0634_55"
    INDEX 01 00:58:51
  TRACK 56 AUDIO
    TITLE "2Q_t_0618-0634_56"
    INDEX 01 00:59:21
  TRACK 57 AUDIO
    TITLE "2Q_t_0618-0634_57"
    INDEX 01 01:00:20
  TRACK 58 AUDIO
    TITLE "2Q_t_0618-0634_58"
    INDEX 01 01:00:73
  TRACK 59 AUDIO
    TITLE "2Q_t_0618-0634_59"
    INDEX 01 01:03:48
  TRACK 60 AUDIO
    TITLE "2Q_t_0618-0634_60"
    INDEX 01 01:04:18
  TRACK 61 AUDIO
    TITLE "2Q_t_0618-0634_61"
    INDEX 01 01:05:69
  TRACK 62 AUDIO
    TITLE "2Q_t_0618-0634_62"
    INDEX 01 01:06:43
  TRACK 63 AUDIO
    TITLE "2Q_t_0618-0634_63"
    INDEX 01 01:07:56
  TRACK 64 AUDIO
    TITLE "2Q_t_0618-0634_64"
    INDEX 01 01:08:28
  TRACK 65 AUDIO
    TITLE "2Q_t_0618-0634_65"
    INDEX 01 01:09:35
  TRACK 66 AUDIO
    TITLE "2Q_t_0618-0634_66"
    INDEX 01 01:10:11
  TRACK 67 AUDIO
    TITLE "2Q_t_0618-0634_67"
    INDEX 01 01:11:28
  TRACK 68 AUDIO
    TITLE "2Q_t_0618-0634_68"
    INDEX 01 01:11:73
  TRACK 69 AUDIO
    TITLE "2Q_t_0618-0634_69"
    INDEX 01 01:13:03
  TRACK 70 AUDIO
    TITLE "2Q_t_0618-0634_70"
    INDEX 01 01:13:50
  TRACK 71 AUDIO
    TITLE "2Q_t_0618-0634_71"
    INDEX 01 01:15:53
